<svg xmlns="http://www.w3.org/2000/svg" viewBox="0 0 1080 612" width="1080" height="612" font-family="'JetBrains Mono','DejaVu Sans Mono',Menlo,Consolas,monospace" font-size="15"><rect width="100%" height="100%" fill="#0a0e14"/><rect x="0" y="0" width="36" height="18" fill="#121a26"/><text x="0" y="13.68" fill="#ff2e97" textLength="36" lengthAdjust="spacingAndGlyphs" xml:space="preserve"> ◢◤ </text><rect x="36" y="0" width="54" height="18" fill="#121a26"/><text x="36" y="13.68" fill="#00e5ff" font-weight="bold" textLength="54" lengthAdjust="spacingAndGlyphs" xml:space="preserve">DCHECK</text><rect x="90" y="0" width="288" height="18" fill="#121a26"/><text x="90" y="13.68" fill="#708498" textLength="288" lengthAdjust="spacingAndGlyphs" xml:space="preserve"> // DEVICE HEALTH SYSTEM  v0.2.4</text><rect x="378" y="0" width="405" height="18" fill="#121a26"/><rect x="783" y="0" width="135" height="18" fill="#121a26"/><text x="783" y="13.68" fill="#708498" textLength="135" lengthAdjust="spacingAndGlyphs" xml:space="preserve">◈ dell-r630-a  </text><rect x="918" y="0" width="99" height="18" fill="#ffb000"/><text x="918" y="13.68" fill="#0a0e14" font-weight="bold" textLength="99" lengthAdjust="spacingAndGlyphs" xml:space="preserve"> ▲ MONITOR </text><rect x="1017" y="0" width="63" height="18" fill="#121a26"/><text x="1017" y="13.68" fill="#708498" textLength="63" lengthAdjust="spacingAndGlyphs" xml:space="preserve"> 3 DEV </text><text x="9" y="31.68" fill="#ff2e97" textLength="18" lengthAdjust="spacingAndGlyphs" xml:space="preserve">◢ </text><text x="27" y="31.68" fill="#00e5ff" font-weight="bold" textLength="63" lengthAdjust="spacingAndGlyphs" xml:space="preserve">MODULES</text><text x="90" y="31.68" fill="#ff2e97" textLength="18" lengthAdjust="spacingAndGlyphs" xml:space="preserve"> ◣</text><text x="297" y="31.68" fill="#ff2e97" textLength="18" lengthAdjust="spacingAndGlyphs" xml:space="preserve">◢ </text><text x="315" y="31.68" fill="#00e5ff" font-weight="bold" textLength="117" lengthAdjust="spacingAndGlyphs" xml:space="preserve">STORAGE ARRAY</text><text x="432" y="31.68" fill="#ff2e97" textLength="18" lengthAdjust="spacingAndGlyphs" xml:space="preserve"> ◣</text><text x="963" y="31.68" fill="#708498" textLength="108" lengthAdjust="spacingAndGlyphs" xml:space="preserve"> 3 ATTACHED </text><text x="297" y="49.68" fill="#708498" textLength="90" lengthAdjust="spacingAndGlyphs" xml:space="preserve">STATUS    </text><rect x="387" y="36" width="99" height="18" fill="#ffb000"/><text x="387" y="49.68" fill="#0a0e14" font-weight="bold" textLength="99" lengthAdjust="spacingAndGlyphs" xml:space="preserve"> ▲ MONITOR </text><text x="297" y="67.68" fill="#708498" textLength="99" lengthAdjust="spacingAndGlyphs" xml:space="preserve">DEVICES    </text><text x="396" y="67.68" fill="#c4d2e0" textLength="675" lengthAdjust="spacingAndGlyphs" xml:space="preserve">3 attached · 1 mounted                                                     </text><text x="297" y="85.68" fill="#708498" textLength="99" lengthAdjust="spacingAndGlyphs" xml:space="preserve">CAPACITY   </text><text x="396" y="85.68" fill="#c4d2e0" textLength="675" lengthAdjust="spacingAndGlyphs" xml:space="preserve">3.8 TB raw                                                                 </text><rect x="9" y="90" width="270" height="18" fill="#4a0e34"/><text x="9" y="103.68" fill="#ffffff" font-weight="bold" textLength="270" lengthAdjust="spacingAndGlyphs" xml:space="preserve">▶ 01 STORAGE                ▲ </text><text x="27" y="121.68" fill="#708498" textLength="27" lengthAdjust="spacingAndGlyphs" xml:space="preserve">02 </text><text x="54" y="121.68" fill="#c4d2e0" font-weight="bold" textLength="54" lengthAdjust="spacingAndGlyphs" xml:space="preserve">MEMORY</text><text x="261" y="121.68" fill="#39ff88" font-weight="bold" textLength="9" lengthAdjust="spacingAndGlyphs" xml:space="preserve">✔</text><text x="324" y="121.68" fill="#00e5ff" font-weight="bold" textLength="45" lengthAdjust="spacingAndGlyphs" xml:space="preserve">UNITS</text><text x="27" y="139.68" fill="#708498" textLength="27" lengthAdjust="spacingAndGlyphs" xml:space="preserve">03 </text><text x="54" y="139.68" fill="#c4d2e0" font-weight="bold" textLength="81" lengthAdjust="spacingAndGlyphs" xml:space="preserve">PROCESSOR</text><text x="261" y="139.68" fill="#39ff88" font-weight="bold" textLength="9" lengthAdjust="spacingAndGlyphs" xml:space="preserve">✔</text><text x="297" y="139.68" fill="#00e5ff" textLength="18" lengthAdjust="spacingAndGlyphs" xml:space="preserve">▸ </text><text x="315" y="139.68" fill="#c4d2e0" font-weight="bold" textLength="90" lengthAdjust="spacingAndGlyphs" xml:space="preserve">sda       </text><text x="405" y="139.68" fill="#708498" textLength="54" lengthAdjust="spacingAndGlyphs" xml:space="preserve"> HDD  </text><text x="459" y="139.68" fill="#c4d2e0" textLength="99" lengthAdjust="spacingAndGlyphs" xml:space="preserve">   900 GB  </text><text x="558" y="139.68" fill="#39ff88" font-weight="bold" textLength="36" lengthAdjust="spacingAndGlyphs" xml:space="preserve">✔ OK</text><text x="27" y="157.68" fill="#708498" textLength="27" lengthAdjust="spacingAndGlyphs" xml:space="preserve">00 </text><text x="54" y="157.68" fill="#c4d2e0" font-weight="bold" textLength="36" lengthAdjust="spacingAndGlyphs" xml:space="preserve">EXIT</text><text x="297" y="157.68" fill="#00e5ff" textLength="18" lengthAdjust="spacingAndGlyphs" xml:space="preserve">▸ </text><text x="315" y="157.68" fill="#c4d2e0" font-weight="bold" textLength="90" lengthAdjust="spacingAndGlyphs" xml:space="preserve">sdb       </text><text x="405" y="157.68" fill="#708498" textLength="54" lengthAdjust="spacingAndGlyphs" xml:space="preserve"> HDD  </text><text x="459" y="157.68" fill="#c4d2e0" textLength="99" lengthAdjust="spacingAndGlyphs" xml:space="preserve">   900 GB  </text><text x="558" y="157.68" fill="#ffb000" font-weight="bold" textLength="81" lengthAdjust="spacingAndGlyphs" xml:space="preserve">▲ MONITOR</text><text x="297" y="175.68" fill="#00e5ff" textLength="18" lengthAdjust="spacingAndGlyphs" xml:space="preserve">▸ </text><text x="315" y="175.68" fill="#c4d2e0" font-weight="bold" textLength="90" lengthAdjust="spacingAndGlyphs" xml:space="preserve">sdc       </text><text x="405" y="175.68" fill="#708498" textLength="54" lengthAdjust="spacingAndGlyphs" xml:space="preserve"> HDD  </text><text x="459" y="175.68" fill="#c4d2e0" textLength="99" lengthAdjust="spacingAndGlyphs" xml:space="preserve">   2.0 TB  </text><text x="558" y="175.68" fill="#ffb000" font-weight="bold" textLength="81" lengthAdjust="spacingAndGlyphs" xml:space="preserve">▲ MONITOR</text><text x="297" y="211.68" fill="#708498" textLength="234" lengthAdjust="spacingAndGlyphs" xml:space="preserve">enter ▸ open storage array</text><rect x="9" y="594" width="36" height="18" fill="#121a26"/><text x="9" y="607.68" fill="#00e5ff" font-weight="bold" textLength="36" lengthAdjust="spacingAndGlyphs" xml:space="preserve"> ↑↓ </text><text x="45" y="607.68" fill="#708498" textLength="54" lengthAdjust="spacingAndGlyphs" xml:space="preserve"> nav  </text><rect x="99" y="594" width="63" height="18" fill="#121a26"/><text x="99" y="607.68" fill="#00e5ff" font-weight="bold" textLength="63" lengthAdjust="spacingAndGlyphs" xml:space="preserve"> enter </text><text x="162" y="607.68" fill="#708498" textLength="63" lengthAdjust="spacingAndGlyphs" xml:space="preserve"> open  </text><rect x="225" y="594" width="45" height="18" fill="#121a26"/><text x="225" y="607.68" fill="#00e5ff" font-weight="bold" textLength="45" lengthAdjust="spacingAndGlyphs" xml:space="preserve"> 1-3 </text><text x="270" y="607.68" fill="#708498" textLength="63" lengthAdjust="spacingAndGlyphs" xml:space="preserve"> jump  </text><rect x="333" y="594" width="27" height="18" fill="#121a26"/><text x="333" y="607.68" fill="#00e5ff" font-weight="bold" textLength="27" lengthAdjust="spacingAndGlyphs" xml:space="preserve"> ? </text><text x="360" y="607.68" fill="#708498" textLength="63" lengthAdjust="spacingAndGlyphs" xml:space="preserve"> help  </text><rect x="423" y="594" width="27" height="18" fill="#121a26"/><text x="423" y="607.68" fill="#00e5ff" font-weight="bold" textLength="27" lengthAdjust="spacingAndGlyphs" xml:space="preserve"> q </text><text x="450" y="607.68" fill="#708498" textLength="63" lengthAdjust="spacingAndGlyphs" xml:space="preserve"> quit  </text><rect x="3.05" y="25.55" width="6.10" height="2.90" fill="#00e5ff"/><rect x="3.05" y="25.55" width="2.90" height="10.60" fill="#00e5ff"/><rect x="107.85" y="26.20" width="9.30" height="1.60" fill="#1c4a5c"/><rect x="116.85" y="26.20" width="9.30" height="1.60" fill="#1c4a5c"/><rect x="125.85" y="26.20" width="9.30" height="1.60" fill="#1c4a5c"/><rect x="134.85" y="26.20" width="9.30" height="1.60" fill="#1c4a5c"/><rect x="143.85" y="26.20" width="9.30" height="1.60" fill="#1c4a5c"/><rect x="152.85" y="26.20" width="9.30" height="1.60" fill="#1c4a5c"/><rect x="161.85" y="26.20" width="9.30" height="1.60" fill="#1c4a5c"/><rect x="170.85" y="26.20" width="9.30" height="1.60" fill="#1c4a5c"/><rect x="179.85" y="26.20" width="9.30" height="1.60" fill="#1c4a5c"/><rect x="188.85" y="26.20" width="9.30" height="1.60" fill="#1c4a5c"/><rect x="197.85" y="26.20" width="9.30" height="1.60" fill="#1c4a5c"/><rect x="206.85" y="26.20" width="9.30" height="1.60" fill="#1c4a5c"/><rect x="215.85" y="26.20" width="9.30" height="1.60" fill="#1c4a5c"/><rect x="224.85" y="26.20" width="9.30" height="1.60" fill="#1c4a5c"/><rect x="233.85" y="26.20" width="9.30" height="1.60" fill="#1c4a5c"/><rect x="242.85" y="26.20" width="9.30" height="1.60" fill="#1c4a5c"/><rect x="251.85" y="26.20" width="9.30" height="1.60" fill="#1c4a5c"/><rect x="260.85" y="26.20" width="9.30" height="1.60" fill="#1c4a5c"/><rect x="269.85" y="26.20" width="9.30" height="1.60" fill="#1c4a5c"/><rect x="278.85" y="25.55" width="6.10" height="2.90" fill="#00e5ff"/><rect x="282.05" y="25.55" width="2.90" height="10.60" fill="#00e5ff"/><rect x="291.05" y="25.55" width="6.10" height="2.90" fill="#00e5ff"/><rect x="291.05" y="25.55" width="2.90" height="10.60" fill="#00e5ff"/><rect x="449.85" y="26.20" width="9.30" height="1.60" fill="#1c4a5c"/><rect x="458.85" y="26.20" width="9.30" height="1.60" fill="#1c4a5c"/><rect x="467.85" y="26.20" width="9.30" height="1.60" fill="#1c4a5c"/><rect x="476.85" y="26.20" width="9.30" height="1.60" fill="#1c4a5c"/><rect x="485.85" y="26.20" width="9.30" height="1.60" fill="#1c4a5c"/><rect x="494.85" y="26.20" width="9.30" height="1.60" fill="#1c4a5c"/><rect x="503.85" y="26.20" width="9.30" height="1.60" fill="#1c4a5c"/><rect x="512.85" y="26.20" width="9.30" height="1.60" fill="#1c4a5c"/><rect x="521.85" y="26.20" width="9.30" height="1.60" fill="#1c4a5c"/><rect x="530.85" y="26.20" width="9.30" height="1.60" fill="#1c4a5c"/><rect x="539.85" y="26.20" width="9.30" height="1.60" fill="#1c4a5c"/><rect x="548.85" y="26.20" width="9.30" height="1.60" fill="#1c4a5c"/><rect x="557.85" y="26.20" width="9.30" height="1.60" fill="#1c4a5c"/><rect x="566.85" y="26.20" width="9.30" height="1.60" fill="#1c4a5c"/><rect x="575.85" y="26.20" width="9.30" height="1.60" fill="#1c4a5c"/><rect x="584.85" y="26.20" width="9.30" height="1.60" fill="#1c4a5c"/><rect x="593.85" y="26.20" width="9.30" height="1.60" fill="#1c4a5c"/><rect x="602.85" y="26.20" width="9.30" height="1.60" fill="#1c4a5c"/><rect x="611.85" y="26.20" width="9.30" height="1.60" fill="#1c4a5c"/><rect x="620.85" y="26.20" width="9.30" height="1.60" fill="#1c4a5c"/><rect x="629.85" y="26.20" width="9.30" height="1.60" fill="#1c4a5c"/><rect x="638.85" y="26.20" width="9.30" height="1.60" fill="#1c4a5c"/><rect x="647.85" y="26.20" width="9.30" height="1.60" fill="#1c4a5c"/><rect x="656.85" y="26.20" width="9.30" height="1.60" fill="#1c4a5c"/><rect x="665.85" y="26.20" width="9.30" height="1.60" fill="#1c4a5c"/><rect x="674.85" y="26.20" width="9.30" height="1.60" fill="#1c4a5c"/><rect x="683.85" y="26.20" width="9.30" height="1.60" fill="#1c4a5c"/><rect x="692.85" y="26.20" width="9.30" height="1.60" fill="#1c4a5c"/><rect x="701.85" y="26.20" width="9.30" height="1.60" fill="#1c4a5c"/><rect x="710.85" y="26.20" width="9.30" height="1.60" fill="#1c4a5c"/><rect x="719.85" y="26.20" width="9.30" height="1.60" fill="#1c4a5c"/><rect x="728.85" y="26.20" width="9.30" height="1.60" fill="#1c4a5c"/><rect x="737.85" y="26.20" width="9.30" height="1.60" fill="#1c4a5c"/><rect x="746.85" y="26.20" width="9.30" height="1.60" fill="#1c4a5c"/><rect x="755.85" y="26.20" width="9.30" height="1.60" fill="#1c4a5c"/><rect x="764.85" y="26.20" width="9.30" height="1.60" fill="#1c4a5c"/><rect x="773.85" y="26.20" width="9.30" height="1.60" fill="#1c4a5c"/><rect x="782.85" y="26.20" width="9.30" height="1.60" fill="#1c4a5c"/><rect x="791.85" y="26.20" width="9.30" height="1.60" fill="#1c4a5c"/><rect x="800.85" y="26.20" width="9.30" height="1.60" fill="#1c4a5c"/><rect x="809.85" y="26.20" width="9.30" height="1.60" fill="#1c4a5c"/><rect x="818.85" y="26.20" width="9.30" height="1.60" fill="#1c4a5c"/><rect x="827.85" y="26.20" width="9.30" height="1.60" fill="#1c4a5c"/><rect x="836.85" y="26.20" width="9.30" height="1.60" fill="#1c4a5c"/><rect x="845.85" y="26.20" width="9.30" height="1.60" fill="#1c4a5c"/><rect x="854.85" y="26.20" width="9.30" height="1.60" fill="#1c4a5c"/><rect x="863.85" y="26.20" width="9.30" height="1.60" fill="#1c4a5c"/><rect x="872.85" y="26.20" width="9.30" height="1.60" fill="#1c4a5c"/><rect x="881.85" y="26.20" width="9.30" height="1.60" fill="#1c4a5c"/><rect x="890.85" y="26.20" width="9.30" height="1.60" fill="#1c4a5c"/><rect x="899.85" y="26.20" width="9.30" height="1.60" fill="#1c4a5c"/><rect x="908.85" y="26.20" width="9.30" height="1.60" fill="#1c4a5c"/><rect x="917.85" y="26.20" width="9.30" height="1.60" fill="#1c4a5c"/><rect x="926.85" y="26.20" width="9.30" height="1.60" fill="#1c4a5c"/><rect x="935.85" y="26.20" width="9.30" height="1.60" fill="#1c4a5c"/><rect x="944.85" y="26.20" width="9.30" height="1.60" fill="#1c4a5c"/><rect x="953.85" y="26.20" width="9.30" height="1.60" fill="#1c4a5c"/><rect x="1070.85" y="25.55" width="6.10" height="2.90" fill="#00e5ff"/><rect x="1074.05" y="25.55" width="2.90" height="10.60" fill="#00e5ff"/><rect x="3.70" y="35.85" width="1.60" height="18.30" fill="#1c4a5c"/><rect x="44.85" y="35.85" width="9.30" height="18.30" fill="#00e5ff"/><rect x="53.85" y="35.85" width="9.30" height="9.30" fill="#00e5ff"/><rect x="62.85" y="44.85" width="9.30" height="9.30" fill="#00e5ff"/><rect x="80.85" y="35.85" width="9.30" height="18.30" fill="#00e5ff"/><rect x="89.85" y="35.85" width="9.30" height="9.30" fill="#00e5ff"/><rect x="98.85" y="35.85" width="9.30" height="9.30" fill="#00e5ff"/><rect x="116.85" y="35.85" width="9.30" height="18.30" fill="#00e5ff"/><rect x="134.85" y="35.85" width="9.30" height="18.30" fill="#00e5ff"/><rect x="152.85" y="35.85" width="9.30" height="18.30" fill="#00e5ff"/><rect x="161.85" y="35.85" width="9.30" height="9.30" fill="#00e5ff"/><rect x="170.85" y="35.85" width="9.30" height="9.30" fill="#00e5ff"/><rect x="188.85" y="35.85" width="9.30" height="18.30" fill="#00e5ff"/><rect x="197.85" y="35.85" width="9.30" height="9.30" fill="#00e5ff"/><rect x="206.85" y="35.85" width="9.30" height="9.30" fill="#00e5ff"/><rect x="224.85" y="35.85" width="9.30" height="18.30" fill="#00e5ff"/><rect x="233.85" y="44.85" width="9.30" height="9.30" fill="#00e5ff"/><rect x="242.85" y="35.85" width="9.30" height="9.30" fill="#00e5ff"/><rect x="282.70" y="35.85" width="1.60" height="18.30" fill="#1c4a5c"/><rect x="291.70" y="35.85" width="1.60" height="18.30" fill="#1c4a5c"/><rect x="1074.70" y="35.85" width="1.60" height="18.30" fill="#1c4a5c"/><rect x="3.70" y="53.85" width="1.60" height="18.30" fill="#1c4a5c"/><rect x="44.85" y="53.85" width="9.30" height="18.30" fill="#ff2e97"/><rect x="53.85" y="62.85" width="9.30" height="9.30" fill="#ff2e97"/><rect x="62.85" y="53.85" width="9.30" height="9.30" fill="#ff2e97"/><rect x="80.85" y="53.85" width="9.30" height="18.30" fill="#ff2e97"/><rect x="89.85" y="62.85" width="9.30" height="9.30" fill="#ff2e97"/><rect x="98.85" y="62.85" width="9.30" height="9.30" fill="#ff2e97"/><rect x="116.85" y="53.85" width="9.30" height="18.30" fill="#ff2e97"/><rect x="125.85" y="53.85" width="9.30" height="9.30" fill="#ff2e97"/><rect x="134.85" y="53.85" width="9.30" height="18.30" fill="#ff2e97"/><rect x="152.85" y="53.85" width="9.30" height="18.30" fill="#ff2e97"/><rect x="161.85" y="53.85" width="9.30" height="18.30" fill="#ff2e97"/><rect x="170.85" y="62.85" width="9.30" height="9.30" fill="#ff2e97"/><rect x="188.85" y="53.85" width="9.30" height="18.30" fill="#ff2e97"/><rect x="197.85" y="62.85" width="9.30" height="9.30" fill="#ff2e97"/><rect x="206.85" y="62.85" width="9.30" height="9.30" fill="#ff2e97"/><rect x="224.85" y="53.85" width="9.30" height="18.30" fill="#ff2e97"/><rect x="242.85" y="53.85" width="9.30" height="18.30" fill="#ff2e97"/><rect x="282.70" y="53.85" width="1.60" height="18.30" fill="#1c4a5c"/><rect x="291.70" y="53.85" width="1.60" height="18.30" fill="#1c4a5c"/><rect x="1074.70" y="53.85" width="1.60" height="18.30" fill="#1c4a5c"/><rect x="3.70" y="71.85" width="1.60" height="18.30" fill="#1c4a5c"/><rect x="282.70" y="71.85" width="1.60" height="18.30" fill="#1c4a5c"/><rect x="291.70" y="71.85" width="1.60" height="18.30" fill="#1c4a5c"/><rect x="1074.70" y="71.85" width="1.60" height="18.30" fill="#1c4a5c"/><rect x="3.70" y="89.85" width="1.60" height="18.30" fill="#1c4a5c"/><rect x="282.70" y="89.85" width="1.60" height="18.30" fill="#1c4a5c"/><rect x="291.70" y="89.85" width="1.60" height="18.30" fill="#1c4a5c"/><rect x="1074.70" y="89.85" width="1.60" height="18.30" fill="#1c4a5c"/><rect x="3.70" y="107.85" width="1.60" height="18.30" fill="#1c4a5c"/><rect x="282.70" y="107.85" width="1.60" height="18.30" fill="#1c4a5c"/><rect x="291.70" y="107.85" width="1.60" height="18.30" fill="#1c4a5c"/><rect x="296.85" y="116.20" width="9.30" height="1.60" fill="#1c4a5c"/><rect x="305.85" y="116.20" width="9.30" height="1.60" fill="#1c4a5c"/><rect x="377.85" y="116.20" width="9.30" height="1.60" fill="#1c4a5c"/><rect x="386.85" y="116.20" width="9.30" height="1.60" fill="#1c4a5c"/><rect x="395.85" y="116.20" width="9.30" height="1.60" fill="#1c4a5c"/><rect x="404.85" y="116.20" width="9.30" height="1.60" fill="#1c4a5c"/><rect x="413.85" y="116.20" width="9.30" height="1.60" fill="#1c4a5c"/><rect x="422.85" y="116.20" width="9.30" height="1.60" fill="#1c4a5c"/><rect x="431.85" y="116.20" width="9.30" height="1.60" fill="#1c4a5c"/><rect x="440.85" y="116.20" width="9.30" height="1.60" fill="#1c4a5c"/><rect x="449.85" y="116.20" width="9.30" height="1.60" fill="#1c4a5c"/><rect x="458.85" y="116.20" width="9.30" height="1.60" fill="#1c4a5c"/><rect x="467.85" y="116.20" width="9.30" height="1.60" fill="#1c4a5c"/><rect x="476.85" y="116.20" width="9.30" height="1.60" fill="#1c4a5c"/><rect x="485.85" y="116.20" width="9.30" height="1.60" fill="#1c4a5c"/><rect x="494.85" y="116.20" width="9.30" height="1.60" fill="#1c4a5c"/><rect x="503.85" y="116.20" width="9.30" height="1.60" fill="#1c4a5c"/><rect x="512.85" y="116.20" width="9.30" height="1.60" fill="#1c4a5c"/><rect x="521.85" y="116.20" width="9.30" height="1.60" fill="#1c4a5c"/><rect x="530.85" y="116.20" width="9.30" height="1.60" fill="#1c4a5c"/><rect x="539.85" y="116.20" width="9.30" height="1.60" fill="#1c4a5c"/><rect x="548.85" y="116.20" width="9.30" height="1.60" fill="#1c4a5c"/><rect x="557.85" y="116.20" width="9.30" height="1.60" fill="#1c4a5c"/><rect x="566.85" y="116.20" width="9.30" height="1.60" fill="#1c4a5c"/><rect x="575.85" y="116.20" width="9.30" height="1.60" fill="#1c4a5c"/><rect x="584.85" y="116.20" width="9.30" height="1.60" fill="#1c4a5c"/><rect x="593.85" y="116.20" width="9.30" height="1.60" fill="#1c4a5c"/><rect x="602.85" y="116.20" width="9.30" height="1.60" fill="#1c4a5c"/><rect x="611.85" y="116.20" width="9.30" height="1.60" fill="#1c4a5c"/><rect x="620.85" y="116.20" width="9.30" height="1.60" fill="#1c4a5c"/><rect x="629.85" y="116.20" width="9.30" height="1.60" fill="#1c4a5c"/><rect x="638.85" y="116.20" width="9.30" height="1.60" fill="#1c4a5c"/><rect x="647.85" y="116.20" width="9.30" height="1.60" fill="#1c4a5c"/><rect x="656.85" y="116.20" width="9.30" height="1.60" fill="#1c4a5c"/><rect x="665.85" y="116.20" width="9.30" height="1.60" fill="#1c4a5c"/><rect x="674.85" y="116.20" width="9.30" height="1.60" fill="#1c4a5c"/><rect x="683.85" y="116.20" width="9.30" height="1.60" fill="#1c4a5c"/><rect x="692.85" y="116.20" width="9.30" height="1.60" fill="#1c4a5c"/><rect x="701.85" y="116.20" width="9.30" height="1.60" fill="#1c4a5c"/><rect x="710.85" y="116.20" width="9.30" height="1.60" fill="#1c4a5c"/><rect x="719.85" y="116.20" width="9.30" height="1.60" fill="#1c4a5c"/><rect x="728.85" y="116.20" width="9.30" height="1.60" fill="#1c4a5c"/><rect x="737.85" y="116.20" width="9.30" height="1.60" fill="#1c4a5c"/><rect x="746.85" y="116.20" width="9.30" height="1.60" fill="#1c4a5c"/><rect x="755.85" y="116.20" width="9.30" height="1.60" fill="#1c4a5c"/><rect x="764.85" y="116.20" width="9.30" height="1.60" fill="#1c4a5c"/><rect x="773.85" y="116.20" width="9.30" height="1.60" fill="#1c4a5c"/><rect x="782.85" y="116.20" width="9.30" height="1.60" fill="#1c4a5c"/><rect x="791.85" y="116.20" width="9.30" height="1.60" fill="#1c4a5c"/><rect x="800.85" y="116.20" width="9.30" height="1.60" fill="#1c4a5c"/><rect x="809.85" y="116.20" width="9.30" height="1.60" fill="#1c4a5c"/><rect x="818.85" y="116.20" width="9.30" height="1.60" fill="#1c4a5c"/><rect x="827.85" y="116.20" width="9.30" height="1.60" fill="#1c4a5c"/><rect x="836.85" y="116.20" width="9.30" height="1.60" fill="#1c4a5c"/><rect x="845.85" y="116.20" width="9.30" height="1.60" fill="#1c4a5c"/><rect x="854.85" y="116.20" width="9.30" height="1.60" fill="#1c4a5c"/><rect x="863.85" y="116.20" width="9.30" height="1.60" fill="#1c4a5c"/><rect x="872.85" y="116.20" width="9.30" height="1.60" fill="#1c4a5c"/><rect x="881.85" y="116.20" width="9.30" height="1.60" fill="#1c4a5c"/><rect x="890.85" y="116.20" width="9.30" height="1.60" fill="#1c4a5c"/><rect x="899.85" y="116.20" width="9.30" height="1.60" fill="#1c4a5c"/><rect x="908.85" y="116.20" width="9.30" height="1.60" fill="#1c4a5c"/><rect x="917.85" y="116.20" width="9.30" height="1.60" fill="#1c4a5c"/><rect x="926.85" y="116.20" width="9.30" height="1.60" fill="#1c4a5c"/><rect x="935.85" y="116.20" width="9.30" height="1.60" fill="#1c4a5c"/><rect x="944.85" y="116.20" width="9.30" height="1.60" fill="#1c4a5c"/><rect x="953.85" y="116.20" width="9.30" height="1.60" fill="#1c4a5c"/><rect x="962.85" y="116.20" width="9.30" height="1.60" fill="#1c4a5c"/><rect x="971.85" y="116.20" width="9.30" height="1.60" fill="#1c4a5c"/><rect x="980.85" y="116.20" width="9.30" height="1.60" fill="#1c4a5c"/><rect x="989.85" y="116.20" width="9.30" height="1.60" fill="#1c4a5c"/><rect x="998.85" y="116.20" width="9.30" height="1.60" fill="#1c4a5c"/><rect x="1007.85" y="116.20" width="9.30" height="1.60" fill="#1c4a5c"/><rect x="1016.85" y="116.20" width="9.30" height="1.60" fill="#1c4a5c"/><rect x="1025.85" y="116.20" width="9.30" height="1.60" fill="#1c4a5c"/><rect x="1034.85" y="116.20" width="9.30" height="1.60" fill="#1c4a5c"/><rect x="1043.85" y="116.20" width="9.30" height="1.60" fill="#1c4a5c"/><rect x="1052.85" y="116.20" width="9.30" height="1.60" fill="#1c4a5c"/><rect x="1061.85" y="116.20" width="9.30" height="1.60" fill="#1c4a5c"/><rect x="1074.70" y="107.85" width="1.60" height="18.30" fill="#1c4a5c"/><rect x="3.70" y="125.85" width="1.60" height="18.30" fill="#1c4a5c"/><rect x="282.70" y="125.85" width="1.60" height="18.30" fill="#1c4a5c"/><rect x="291.70" y="125.85" width="1.60" height="18.30" fill="#1c4a5c"/><rect x="1074.70" y="125.85" width="1.60" height="18.30" fill="#1c4a5c"/><rect x="3.70" y="143.85" width="1.60" height="18.30" fill="#1c4a5c"/><rect x="282.70" y="143.85" width="1.60" height="18.30" fill="#1c4a5c"/><rect x="291.70" y="143.85" width="1.60" height="18.30" fill="#1c4a5c"/><rect x="1074.70" y="143.85" width="1.60" height="18.30" fill="#1c4a5c"/><rect x="3.70" y="161.85" width="1.60" height="18.30" fill="#1c4a5c"/><rect x="282.70" y="161.85" width="1.60" height="18.30" fill="#1c4a5c"/><rect x="291.70" y="161.85" width="1.60" height="18.30" fill="#1c4a5c"/><rect x="1074.70" y="161.85" width="1.60" height="18.30" fill="#1c4a5c"/><rect x="3.70" y="179.85" width="1.60" height="18.30" fill="#1c4a5c"/><rect x="282.70" y="179.85" width="1.60" height="18.30" fill="#1c4a5c"/><rect x="291.70" y="179.85" width="1.60" height="18.30" fill="#1c4a5c"/><rect x="1074.70" y="179.85" width="1.60" height="18.30" fill="#1c4a5c"/><rect x="3.70" y="197.85" width="1.60" height="18.30" fill="#1c4a5c"/><rect x="282.70" y="197.85" width="1.60" height="18.30" fill="#1c4a5c"/><rect x="291.70" y="197.85" width="1.60" height="18.30" fill="#1c4a5c"/><rect x="1074.70" y="197.85" width="1.60" height="18.30" fill="#1c4a5c"/><rect x="3.70" y="215.85" width="1.60" height="18.30" fill="#1c4a5c"/><rect x="282.70" y="215.85" width="1.60" height="18.30" fill="#1c4a5c"/><rect x="291.70" y="215.85" width="1.60" height="18.30" fill="#1c4a5c"/><rect x="1074.70" y="215.85" width="1.60" height="18.30" fill="#1c4a5c"/><rect x="3.70" y="233.85" width="1.60" height="18.30" fill="#1c4a5c"/><rect x="282.70" y="233.85" width="1.60" height="18.30" fill="#1c4a5c"/><rect x="291.70" y="233.85" width="1.60" height="18.30" fill="#1c4a5c"/><rect x="1074.70" y="233.85" width="1.60" height="18.30" fill="#1c4a5c"/><rect x="3.70" y="251.85" width="1.60" height="18.30" fill="#1c4a5c"/><rect x="282.70" y="251.85" width="1.60" height="18.30" fill="#1c4a5c"/><rect x="291.70" y="251.85" width="1.60" height="18.30" fill="#1c4a5c"/><rect x="1074.70" y="251.85" width="1.60" height="18.30" fill="#1c4a5c"/><rect x="3.70" y="269.85" width="1.60" height="18.30" fill="#1c4a5c"/><rect x="282.70" y="269.85" width="1.60" height="18.30" fill="#1c4a5c"/><rect x="291.70" y="269.85" width="1.60" height="18.30" fill="#1c4a5c"/><rect x="1074.70" y="269.85" width="1.60" height="18.30" fill="#1c4a5c"/><rect x="3.70" y="287.85" width="1.60" height="18.30" fill="#1c4a5c"/><rect x="282.70" y="287.85" width="1.60" height="18.30" fill="#1c4a5c"/><rect x="291.70" y="287.85" width="1.60" height="18.30" fill="#1c4a5c"/><rect x="1074.70" y="287.85" width="1.60" height="18.30" fill="#1c4a5c"/><rect x="3.70" y="305.85" width="1.60" height="18.30" fill="#1c4a5c"/><rect x="282.70" y="305.85" width="1.60" height="18.30" fill="#1c4a5c"/><rect x="291.70" y="305.85" width="1.60" height="18.30" fill="#1c4a5c"/><rect x="1074.70" y="305.85" width="1.60" height="18.30" fill="#1c4a5c"/><rect x="3.70" y="323.85" width="1.60" height="18.30" fill="#1c4a5c"/><rect x="282.70" y="323.85" width="1.60" height="18.30" fill="#1c4a5c"/><rect x="291.70" y="323.85" width="1.60" height="18.30" fill="#1c4a5c"/><rect x="1074.70" y="323.85" width="1.60" height="18.30" fill="#1c4a5c"/><rect x="3.70" y="341.85" width="1.60" height="18.30" fill="#1c4a5c"/><rect x="282.70" y="341.85" width="1.60" height="18.30" fill="#1c4a5c"/><rect x="291.70" y="341.85" width="1.60" height="18.30" fill="#1c4a5c"/><rect x="1074.70" y="341.85" width="1.60" height="18.30" fill="#1c4a5c"/><rect x="3.70" y="359.85" width="1.60" height="18.30" fill="#1c4a5c"/><rect x="282.70" y="359.85" width="1.60" height="18.30" fill="#1c4a5c"/><rect x="291.70" y="359.85" width="1.60" height="18.30" fill="#1c4a5c"/><rect x="1074.70" y="359.85" width="1.60" height="18.30" fill="#1c4a5c"/><rect x="3.70" y="377.85" width="1.60" height="18.30" fill="#1c4a5c"/><rect x="282.70" y="377.85" width="1.60" height="18.30" fill="#1c4a5c"/><rect x="291.70" y="377.85" width="1.60" height="18.30" fill="#1c4a5c"/><rect x="1074.70" y="377.85" width="1.60" height="18.30" fill="#1c4a5c"/><rect x="3.70" y="395.85" width="1.60" height="18.30" fill="#1c4a5c"/><rect x="282.70" y="395.85" width="1.60" height="18.30" fill="#1c4a5c"/><rect x="291.70" y="395.85" width="1.60" height="18.30" fill="#1c4a5c"/><rect x="1074.70" y="395.85" width="1.60" height="18.30" fill="#1c4a5c"/><rect x="3.70" y="413.85" width="1.60" height="18.30" fill="#1c4a5c"/><rect x="282.70" y="413.85" width="1.60" height="18.30" fill="#1c4a5c"/><rect x="291.70" y="413.85" width="1.60" height="18.30" fill="#1c4a5c"/><rect x="1074.70" y="413.85" width="1.60" height="18.30" fill="#1c4a5c"/><rect x="3.70" y="431.85" width="1.60" height="18.30" fill="#1c4a5c"/><rect x="282.70" y="431.85" width="1.60" height="18.30" fill="#1c4a5c"/><rect x="291.70" y="431.85" width="1.60" height="18.30" fill="#1c4a5c"/><rect x="1074.70" y="431.85" width="1.60" height="18.30" fill="#1c4a5c"/><rect x="3.70" y="449.85" width="1.60" height="18.30" fill="#1c4a5c"/><rect x="282.70" y="449.85" width="1.60" height="18.30" fill="#1c4a5c"/><rect x="291.70" y="449.85" width="1.60" height="18.30" fill="#1c4a5c"/><rect x="1074.70" y="449.85" width="1.60" height="18.30" fill="#1c4a5c"/><rect x="3.70" y="467.85" width="1.60" height="18.30" fill="#1c4a5c"/><rect x="282.70" y="467.85" width="1.60" height="18.30" fill="#1c4a5c"/><rect x="291.70" y="467.85" width="1.60" height="18.30" fill="#1c4a5c"/><rect x="1074.70" y="467.85" width="1.60" height="18.30" fill="#1c4a5c"/><rect x="3.70" y="485.85" width="1.60" height="18.30" fill="#1c4a5c"/><rect x="282.70" y="485.85" width="1.60" height="18.30" fill="#1c4a5c"/><rect x="291.70" y="485.85" width="1.60" height="18.30" fill="#1c4a5c"/><rect x="1074.70" y="485.85" width="1.60" height="18.30" fill="#1c4a5c"/><rect x="3.70" y="503.85" width="1.60" height="18.30" fill="#1c4a5c"/><rect x="282.70" y="503.85" width="1.60" height="18.30" fill="#1c4a5c"/><rect x="291.70" y="503.85" width="1.60" height="18.30" fill="#1c4a5c"/><rect x="1074.70" y="503.85" width="1.60" height="18.30" fill="#1c4a5c"/><rect x="3.70" y="521.85" width="1.60" height="18.30" fill="#1c4a5c"/><rect x="282.70" y="521.85" width="1.60" height="18.30" fill="#1c4a5c"/><rect x="291.70" y="521.85" width="1.60" height="18.30" fill="#1c4a5c"/><rect x="1074.70" y="521.85" width="1.60" height="18.30" fill="#1c4a5c"/><rect x="3.70" y="539.85" width="1.60" height="18.30" fill="#1c4a5c"/><rect x="282.70" y="539.85" width="1.60" height="18.30" fill="#1c4a5c"/><rect x="291.70" y="539.85" width="1.60" height="18.30" fill="#1c4a5c"/><rect x="1074.70" y="539.85" width="1.60" height="18.30" fill="#1c4a5c"/><rect x="3.70" y="557.85" width="1.60" height="18.30" fill="#1c4a5c"/><rect x="282.70" y="557.85" width="1.60" height="18.30" fill="#1c4a5c"/><rect x="291.70" y="557.85" width="1.60" height="18.30" fill="#1c4a5c"/><rect x="1074.70" y="557.85" width="1.60" height="18.30" fill="#1c4a5c"/><rect x="3.05" y="583.55" width="6.10" height="2.90" fill="#00e5ff"/><rect x="3.05" y="575.85" width="2.90" height="10.60" fill="#00e5ff"/><rect x="8.85" y="584.20" width="9.30" height="1.60" fill="#1c4a5c"/><rect x="17.85" y="584.20" width="9.30" height="1.60" fill="#1c4a5c"/><rect x="26.85" y="584.20" width="9.30" height="1.60" fill="#1c4a5c"/><rect x="35.85" y="584.20" width="9.30" height="1.60" fill="#1c4a5c"/><rect x="44.85" y="584.20" width="9.30" height="1.60" fill="#1c4a5c"/><rect x="53.85" y="584.20" width="9.30" height="1.60" fill="#1c4a5c"/><rect x="62.85" y="584.20" width="9.30" height="1.60" fill="#1c4a5c"/><rect x="71.85" y="584.20" width="9.30" height="1.60" fill="#1c4a5c"/><rect x="80.85" y="584.20" width="9.30" height="1.60" fill="#1c4a5c"/><rect x="89.85" y="584.20" width="9.30" height="1.60" fill="#1c4a5c"/><rect x="98.85" y="584.20" width="9.30" height="1.60" fill="#1c4a5c"/><rect x="107.85" y="584.20" width="9.30" height="1.60" fill="#1c4a5c"/><rect x="116.85" y="584.20" width="9.30" height="1.60" fill="#1c4a5c"/><rect x="125.85" y="584.20" width="9.30" height="1.60" fill="#1c4a5c"/><rect x="134.85" y="584.20" width="9.30" height="1.60" fill="#1c4a5c"/><rect x="143.85" y="584.20" width="9.30" height="1.60" fill="#1c4a5c"/><rect x="152.85" y="584.20" width="9.30" height="1.60" fill="#1c4a5c"/><rect x="161.85" y="584.20" width="9.30" height="1.60" fill="#1c4a5c"/><rect x="170.85" y="584.20" width="9.30" height="1.60" fill="#1c4a5c"/><rect x="179.85" y="584.20" width="9.30" height="1.60" fill="#1c4a5c"/><rect x="188.85" y="584.20" width="9.30" height="1.60" fill="#1c4a5c"/><rect x="197.85" y="584.20" width="9.30" height="1.60" fill="#1c4a5c"/><rect x="206.85" y="584.20" width="9.30" height="1.60" fill="#1c4a5c"/><rect x="215.85" y="584.20" width="9.30" height="1.60" fill="#1c4a5c"/><rect x="224.85" y="584.20" width="9.30" height="1.60" fill="#1c4a5c"/><rect x="233.85" y="584.20" width="9.30" height="1.60" fill="#1c4a5c"/><rect x="242.85" y="584.20" width="9.30" height="1.60" fill="#1c4a5c"/><rect x="251.85" y="584.20" width="9.30" height="1.60" fill="#1c4a5c"/><rect x="260.85" y="584.20" width="9.30" height="1.60" fill="#1c4a5c"/><rect x="269.85" y="584.20" width="9.30" height="1.60" fill="#1c4a5c"/><rect x="278.85" y="583.55" width="6.10" height="2.90" fill="#00e5ff"/><rect x="282.05" y="575.85" width="2.90" height="10.60" fill="#00e5ff"/><rect x="291.05" y="583.55" width="6.10" height="2.90" fill="#00e5ff"/><rect x="291.05" y="575.85" width="2.90" height="10.60" fill="#00e5ff"/><rect x="296.85" y="584.20" width="9.30" height="1.60" fill="#1c4a5c"/><rect x="305.85" y="584.20" width="9.30" height="1.60" fill="#1c4a5c"/><rect x="314.85" y="584.20" width="9.30" height="1.60" fill="#1c4a5c"/><rect x="323.85" y="584.20" width="9.30" height="1.60" fill="#1c4a5c"/><rect x="332.85" y="584.20" width="9.30" height="1.60" fill="#1c4a5c"/><rect x="341.85" y="584.20" width="9.30" height="1.60" fill="#1c4a5c"/><rect x="350.85" y="584.20" width="9.30" height="1.60" fill="#1c4a5c"/><rect x="359.85" y="584.20" width="9.30" height="1.60" fill="#1c4a5c"/><rect x="368.85" y="584.20" width="9.30" height="1.60" fill="#1c4a5c"/><rect x="377.85" y="584.20" width="9.30" height="1.60" fill="#1c4a5c"/><rect x="386.85" y="584.20" width="9.30" height="1.60" fill="#1c4a5c"/><rect x="395.85" y="584.20" width="9.30" height="1.60" fill="#1c4a5c"/><rect x="404.85" y="584.20" width="9.30" height="1.60" fill="#1c4a5c"/><rect x="413.85" y="584.20" width="9.30" height="1.60" fill="#1c4a5c"/><rect x="422.85" y="584.20" width="9.30" height="1.60" fill="#1c4a5c"/><rect x="431.85" y="584.20" width="9.30" height="1.60" fill="#1c4a5c"/><rect x="440.85" y="584.20" width="9.30" height="1.60" fill="#1c4a5c"/><rect x="449.85" y="584.20" width="9.30" height="1.60" fill="#1c4a5c"/><rect x="458.85" y="584.20" width="9.30" height="1.60" fill="#1c4a5c"/><rect x="467.85" y="584.20" width="9.30" height="1.60" fill="#1c4a5c"/><rect x="476.85" y="584.20" width="9.30" height="1.60" fill="#1c4a5c"/><rect x="485.85" y="584.20" width="9.30" height="1.60" fill="#1c4a5c"/><rect x="494.85" y="584.20" width="9.30" height="1.60" fill="#1c4a5c"/><rect x="503.85" y="584.20" width="9.30" height="1.60" fill="#1c4a5c"/><rect x="512.85" y="584.20" width="9.30" height="1.60" fill="#1c4a5c"/><rect x="521.85" y="584.20" width="9.30" height="1.60" fill="#1c4a5c"/><rect x="530.85" y="584.20" width="9.30" height="1.60" fill="#1c4a5c"/><rect x="539.85" y="584.20" width="9.30" height="1.60" fill="#1c4a5c"/><rect x="548.85" y="584.20" width="9.30" height="1.60" fill="#1c4a5c"/><rect x="557.85" y="584.20" width="9.30" height="1.60" fill="#1c4a5c"/><rect x="566.85" y="584.20" width="9.30" height="1.60" fill="#1c4a5c"/><rect x="575.85" y="584.20" width="9.30" height="1.60" fill="#1c4a5c"/><rect x="584.85" y="584.20" width="9.30" height="1.60" fill="#1c4a5c"/><rect x="593.85" y="584.20" width="9.30" height="1.60" fill="#1c4a5c"/><rect x="602.85" y="584.20" width="9.30" height="1.60" fill="#1c4a5c"/><rect x="611.85" y="584.20" width="9.30" height="1.60" fill="#1c4a5c"/><rect x="620.85" y="584.20" width="9.30" height="1.60" fill="#1c4a5c"/><rect x="629.85" y="584.20" width="9.30" height="1.60" fill="#1c4a5c"/><rect x="638.85" y="584.20" width="9.30" height="1.60" fill="#1c4a5c"/><rect x="647.85" y="584.20" width="9.30" height="1.60" fill="#1c4a5c"/><rect x="656.85" y="584.20" width="9.30" height="1.60" fill="#1c4a5c"/><rect x="665.85" y="584.20" width="9.30" height="1.60" fill="#1c4a5c"/><rect x="674.85" y="584.20" width="9.30" height="1.60" fill="#1c4a5c"/><rect x="683.85" y="584.20" width="9.30" height="1.60" fill="#1c4a5c"/><rect x="692.85" y="584.20" width="9.30" height="1.60" fill="#1c4a5c"/><rect x="701.85" y="584.20" width="9.30" height="1.60" fill="#1c4a5c"/><rect x="710.85" y="584.20" width="9.30" height="1.60" fill="#1c4a5c"/><rect x="719.85" y="584.20" width="9.30" height="1.60" fill="#1c4a5c"/><rect x="728.85" y="584.20" width="9.30" height="1.60" fill="#1c4a5c"/><rect x="737.85" y="584.20" width="9.30" height="1.60" fill="#1c4a5c"/><rect x="746.85" y="584.20" width="9.30" height="1.60" fill="#1c4a5c"/><rect x="755.85" y="584.20" width="9.30" height="1.60" fill="#1c4a5c"/><rect x="764.85" y="584.20" width="9.30" height="1.60" fill="#1c4a5c"/><rect x="773.85" y="584.20" width="9.30" height="1.60" fill="#1c4a5c"/><rect x="782.85" y="584.20" width="9.30" height="1.60" fill="#1c4a5c"/><rect x="791.85" y="584.20" width="9.30" height="1.60" fill="#1c4a5c"/><rect x="800.85" y="584.20" width="9.30" height="1.60" fill="#1c4a5c"/><rect x="809.85" y="584.20" width="9.30" height="1.60" fill="#1c4a5c"/><rect x="818.85" y="584.20" width="9.30" height="1.60" fill="#1c4a5c"/><rect x="827.85" y="584.20" width="9.30" height="1.60" fill="#1c4a5c"/><rect x="836.85" y="584.20" width="9.30" height="1.60" fill="#1c4a5c"/><rect x="845.85" y="584.20" width="9.30" height="1.60" fill="#1c4a5c"/><rect x="854.85" y="584.20" width="9.30" height="1.60" fill="#1c4a5c"/><rect x="863.85" y="584.20" width="9.30" height="1.60" fill="#1c4a5c"/><rect x="872.85" y="584.20" width="9.30" height="1.60" fill="#1c4a5c"/><rect x="881.85" y="584.20" width="9.30" height="1.60" fill="#1c4a5c"/><rect x="890.85" y="584.20" width="9.30" height="1.60" fill="#1c4a5c"/><rect x="899.85" y="584.20" width="9.30" height="1.60" fill="#1c4a5c"/><rect x="908.85" y="584.20" width="9.30" height="1.60" fill="#1c4a5c"/><rect x="917.85" y="584.20" width="9.30" height="1.60" fill="#1c4a5c"/><rect x="926.85" y="584.20" width="9.30" height="1.60" fill="#1c4a5c"/><rect x="935.85" y="584.20" width="9.30" height="1.60" fill="#1c4a5c"/><rect x="944.85" y="584.20" width="9.30" height="1.60" fill="#1c4a5c"/><rect x="953.85" y="584.20" width="9.30" height="1.60" fill="#1c4a5c"/><rect x="962.85" y="584.20" width="9.30" height="1.60" fill="#1c4a5c"/><rect x="971.85" y="584.20" width="9.30" height="1.60" fill="#1c4a5c"/><rect x="980.85" y="584.20" width="9.30" height="1.60" fill="#1c4a5c"/><rect x="989.85" y="584.20" width="9.30" height="1.60" fill="#1c4a5c"/><rect x="998.85" y="584.20" width="9.30" height="1.60" fill="#1c4a5c"/><rect x="1007.85" y="584.20" width="9.30" height="1.60" fill="#1c4a5c"/><rect x="1016.85" y="584.20" width="9.30" height="1.60" fill="#1c4a5c"/><rect x="1025.85" y="584.20" width="9.30" height="1.60" fill="#1c4a5c"/><rect x="1034.85" y="584.20" width="9.30" height="1.60" fill="#1c4a5c"/><rect x="1043.85" y="584.20" width="9.30" height="1.60" fill="#1c4a5c"/><rect x="1052.85" y="584.20" width="9.30" height="1.60" fill="#1c4a5c"/><rect x="1061.85" y="584.20" width="9.30" height="1.60" fill="#1c4a5c"/><rect x="1070.85" y="583.55" width="6.10" height="2.90" fill="#00e5ff"/><rect x="1074.05" y="575.85" width="2.90" height="10.60" fill="#00e5ff"/></svg>
